<svg width="31" height="29" viewBox="0 0 31 29" fill="none" xmlns="http://www.w3.org/2000/svg">
<g id="envelope-solid (3) 1" clip-path="url(#clip0_63_71)">
<path id="Vector" d="M3.22766 3.625C1.67493 3.625 0.415161 4.84277 0.415161 6.34375C0.415161 7.19902 0.831177 8.00332 1.54016 8.51875L14.2902 17.7625C14.9581 18.2439 15.8722 18.2439 16.5402 17.7625L29.2902 8.51875C29.9991 8.00332 30.4152 7.19902 30.4152 6.34375C30.4152 4.84277 29.1554 3.625 27.6027 3.625H3.22766ZM0.415161 9.96875V21.75C0.415161 23.7494 2.0968 25.375 4.16516 25.375H26.6652C28.7335 25.375 30.4152 23.7494 30.4152 21.75V9.96875L17.6652 19.2125C16.3292 20.1811 14.5011 20.1811 13.1652 19.2125L0.415161 9.96875Z" fill="white"/>
</g>
<defs>
<clipPath id="clip0_63_71">
<rect width="30" height="29" fill="white" transform="translate(0.415161)"/>
</clipPath>
</defs>
</svg>
