<svg width="28" height="29" viewBox="0 0 28 29" fill="none" xmlns="http://www.w3.org/2000/svg">
<g id="lock-solid 1" clip-path="url(#clip0_161_43)">
<path id="Vector" d="M9.16245 8.34463V10.9616H18.6968V8.34463C18.6968 5.93484 16.5635 3.98301 13.9296 3.98301C11.2958 3.98301 9.16245 5.93484 9.16245 8.34463ZM5.34871 10.9616V8.34463C5.34871 4.01027 9.19225 0.493713 13.9296 0.493713C18.667 0.493713 22.5105 4.01027 22.5105 8.34463V10.9616H23.464C25.5675 10.9616 27.2777 12.5263 27.2777 14.4509V24.9188C27.2777 26.8434 25.5675 28.4081 23.464 28.4081H4.39528C2.29177 28.4081 0.581543 26.8434 0.581543 24.9188V14.4509C0.581543 12.5263 2.29177 10.9616 4.39528 10.9616H5.34871Z" fill="white"/>
</g>
<defs>
<clipPath id="clip0_161_43">
<rect width="26.6962" height="27.9144" fill="white" transform="translate(0.581543 0.493713)"/>
</clipPath>
</defs>
</svg>
