<svg width="26" height="26" viewBox="0 0 26 26" fill="none" xmlns="http://www.w3.org/2000/svg">
<g id="square-instagram" clip-path="url(#clip0_172_66)">
<path id="Vector" d="M12.6187 10.3586C12.03 10.3588 11.4546 10.5117 10.9653 10.798C10.4759 11.0843 10.0946 11.4911 9.86946 11.9671C9.64435 12.443 9.58556 12.9666 9.70054 13.4718C9.81551 13.9769 10.0991 14.4409 10.5154 14.8051C10.9317 15.1692 11.4621 15.4172 12.0395 15.5176C12.6168 15.618 13.2153 15.5664 13.7591 15.3692C14.3029 15.1721 14.7677 14.8382 15.0948 14.41C15.4218 13.9817 15.5963 13.4782 15.5963 12.9631C15.5957 12.2723 15.2818 11.61 14.7235 11.1216C14.1651 10.6333 13.4081 10.3588 12.6187 10.3586ZM19.5779 8.35663C19.4264 8.02061 19.1976 7.71543 18.9056 7.46C18.6137 7.20457 18.2649 7.00435 17.8809 6.87177C16.7091 6.46698 13.9189 6.5578 12.6187 6.5578C11.3184 6.5578 8.53104 6.46356 7.35582 6.87177C6.9718 7.00435 6.62302 7.20457 6.3311 7.46C6.03918 7.71543 5.81036 8.02061 5.65883 8.35663C5.19678 9.38202 5.30001 11.8259 5.30001 12.9626C5.30001 14.0993 5.19678 16.5402 5.66106 17.569C5.81259 17.905 6.04141 18.2102 6.33333 18.4657C6.62525 18.7211 6.97403 18.9213 7.35805 19.0539C8.52992 19.4587 11.3201 19.3679 12.6209 19.3679C13.9217 19.3679 16.7079 19.4621 17.8832 19.0539C18.2672 18.9213 18.616 18.7211 18.9079 18.4657C19.1998 18.2102 19.4286 17.905 19.5801 17.569C20.0461 16.5436 19.939 14.0998 19.939 12.9631C19.939 11.8264 20.0461 9.38593 19.5801 8.35712L19.5779 8.35663ZM12.6187 16.967C11.7136 16.967 10.8289 16.7322 10.0764 16.2922C9.32392 15.8522 8.73742 15.2269 8.39108 14.4953C8.04474 13.7637 7.95412 12.9586 8.13068 12.182C8.30725 11.4053 8.74306 10.6918 9.38301 10.1319C10.023 9.57193 10.8383 9.19059 11.7259 9.0361C12.6136 8.88161 13.5336 8.9609 14.3698 9.26395C15.2059 9.56699 15.9206 10.0802 16.4234 10.7386C16.9262 11.3971 17.1945 12.1712 17.1945 12.9631C17.1953 13.4891 17.0774 14.01 16.8477 14.4961C16.618 14.9821 16.281 15.4238 15.8559 15.7957C15.4309 16.1676 14.9261 16.4625 14.3706 16.6635C13.8151 16.8645 13.2198 16.9676 12.6187 16.967ZM17.3832 9.72577C17.1719 9.72587 16.9653 9.67114 16.7896 9.5685C16.6139 9.46587 16.4769 9.31994 16.396 9.14918C16.3151 8.97842 16.2938 8.79049 16.335 8.60917C16.3761 8.42785 16.4778 8.26128 16.6272 8.13053C16.7765 7.99978 16.9668 7.91072 17.174 7.87462C17.3812 7.83852 17.596 7.857 17.7912 7.92772C17.9864 7.99844 18.1533 8.11823 18.2706 8.27193C18.388 8.42563 18.4507 8.60634 18.4507 8.7912C18.4513 8.91396 18.4242 9.03561 18.3709 9.14918C18.3176 9.26275 18.2393 9.366 18.1403 9.45301C18.0413 9.54002 17.9237 9.60908 17.7941 9.65622C17.6646 9.70336 17.5257 9.72766 17.3854 9.72772L17.3832 9.72577ZM22.4401 2.02557H2.79722C2.08682 2.02557 1.40552 2.2725 0.903188 2.71204C0.400858 3.15158 0.118652 3.74772 0.118652 4.36932L0.118652 21.5568C0.118652 22.1784 0.400858 22.7746 0.903188 23.2141C1.40552 23.6536 2.08682 23.9006 2.79722 23.9006H22.4401C23.1505 23.9006 23.8318 23.6536 24.3341 23.2141C24.8364 22.7746 25.1187 22.1784 25.1187 21.5568V4.36932C25.1187 3.74772 24.8364 3.15158 24.3341 2.71204C23.8318 2.2725 23.1505 2.02557 22.4401 2.02557ZM21.4847 16.1857C21.4127 17.4372 21.0863 18.5461 20.0422 19.4572C18.9981 20.3683 17.7319 20.6599 16.3034 20.7194C14.8296 20.7922 10.4111 20.7922 8.93729 20.7194C7.50705 20.6564 6.24421 20.3703 5.19845 19.4572C4.15269 18.5441 3.82401 17.4348 3.75593 16.1857C3.67278 14.8957 3.67278 11.029 3.75593 9.74042C3.82792 8.48895 4.15046 7.38007 5.19845 6.46893C6.24644 5.5578 7.51263 5.26971 8.93729 5.21014C10.4111 5.13739 14.8296 5.13739 16.3034 5.21014C17.7336 5.27313 19.0003 5.55927 20.0422 6.47235C21.0841 7.38544 21.4166 8.49481 21.4847 9.74628C21.5679 11.0314 21.5679 14.8947 21.4847 16.1857Z" fill="#030838"/>
</g>
<defs>
<clipPath id="clip0_172_66">
<rect width="25" height="25" fill="white" transform="translate(0.118652 0.463074)"/>
</clipPath>
</defs>
</svg>
