<svg width="27" height="29" viewBox="0 0 27 29" fill="none" xmlns="http://www.w3.org/2000/svg">
<g id="user-solid 1" clip-path="url(#clip0_149_96)">
<path id="Vector" d="M13.3852 14.3734C15.4081 14.3734 17.3482 13.6382 18.7786 12.3295C20.2091 11.0207 21.0127 9.24569 21.0127 7.39485C21.0127 5.54402 20.2091 3.76898 18.7786 2.46024C17.3482 1.1515 15.4081 0.41626 13.3852 0.41626C11.3623 0.41626 9.42218 1.1515 7.99175 2.46024C6.56132 3.76898 5.75772 5.54402 5.75772 7.39485C5.75772 9.24569 6.56132 11.0207 7.99175 12.3295C9.42218 13.6382 11.3623 14.3734 13.3852 14.3734ZM10.6619 16.9904C4.79236 16.9904 0.0371094 21.3411 0.0371094 26.7114C0.0371094 27.6055 0.829652 28.3306 1.80692 28.3306H24.9635C25.9407 28.3306 26.7333 27.6055 26.7333 26.7114C26.7333 21.3411 21.978 16.9904 16.1084 16.9904H10.6619Z" fill="white"/>
</g>
<defs>
<clipPath id="clip0_149_96">
<rect width="26.6962" height="27.9144" fill="white" transform="translate(0.0371094 0.41626)"/>
</clipPath>
</defs>
</svg>
