<svg width="22" height="25" viewBox="0 0 22 25" fill="none" xmlns="http://www.w3.org/2000/svg">
<path id="Vector" d="M7.66753 1.27544C7.35081 0.389147 6.51582 -0.0825876 5.71785 0.169957L2.09818 1.31356C1.38247 1.54228 0.884766 2.29515 0.884766 3.15284C0.884766 14.9414 9.13597 24.5 19.3122 24.5C20.0526 24.5 20.7025 23.9235 20.8999 23.0944L21.8871 18.9012C22.1051 17.9767 21.6979 17.0095 20.9328 16.6425L16.9841 14.7365C16.3136 14.4125 15.5362 14.6365 15.0796 15.2893L13.4179 17.6384C10.5221 16.0517 8.17758 13.3356 6.80786 9.98108L8.8357 8.06079C9.39922 7.52711 9.59254 6.63129 9.31284 5.8546L7.66753 1.2802V1.27544Z" fill="white"/>
</svg>
